<svg id="noun_Calendar_3684239" xmlns="http://www.w3.org/2000/svg" width="23" height="25.091" viewBox="0 0 23 25.091">
  <path id="Path_53" data-name="Path 53" d="M12.7,7.568v.523H9.568A1.57,1.57,0,0,0,8,9.659V29.523a1.57,1.57,0,0,0,1.568,1.568H29.432A1.57,1.57,0,0,0,31,29.523V9.659a1.57,1.57,0,0,0-1.568-1.568H26.818V7.568a1.568,1.568,0,0,0-3.136,0v.523H15.841V7.568a1.568,1.568,0,1,0-3.136,0ZM29.432,30.045H9.568a.523.523,0,0,1-.523-.523V13.841H29.954V29.523A.523.523,0,0,1,29.432,30.045Zm-4.7-22.477a.523.523,0,1,1,1.045,0V9.659a.523.523,0,0,1-1.045,0ZM23.682,9.136v.523a1.568,1.568,0,0,0,3.136,0V9.136h2.614a.523.523,0,0,1,.523.523V12.8H9.045V9.659a.523.523,0,0,1,.523-.523H12.7v.523a1.568,1.568,0,1,0,3.136,0V9.136ZM14.8,7.568V9.659a.523.523,0,0,1-1.045,0V7.568a.523.523,0,1,1,1.045,0Z" transform="translate(-8 -6)" fill="#0b0b0b"/>
  <path id="Path_54" data-name="Path 54" d="M15.652,24H13.53a.531.531,0,0,0-.53.53v2.122a.531.531,0,0,0,.53.53h2.122a.531.531,0,0,0,.53-.53V24.53A.531.531,0,0,0,15.652,24Zm-.53,2.122H14.061V25.061h1.061Z" transform="translate(-10.348 -14.611)" fill="#0b0b0b"/>
  <path id="Path_55" data-name="Path 55" d="M24.652,24H22.53a.531.531,0,0,0-.53.53v2.122a.531.531,0,0,0,.53.53h2.122a.531.531,0,0,0,.53-.53V24.53A.531.531,0,0,0,24.652,24Zm-.53,2.122H23.061V25.061h1.061Z" transform="translate(-14.699 -14.611)" fill="#0b0b0b"/>
  <path id="Path_56" data-name="Path 56" d="M33.652,24H31.53a.531.531,0,0,0-.53.53v2.122a.531.531,0,0,0,.53.53h2.122a.531.531,0,0,0,.53-.53V24.53A.531.531,0,0,0,33.652,24Zm-.53,2.122H32.061V25.061h1.061Z" transform="translate(-19.005 -14.611)" fill="#0b0b0b"/>
  <path id="Path_57" data-name="Path 57" d="M43.652,24H41.53a.531.531,0,0,0-.53.53v2.122a.531.531,0,0,0,.53.53h2.122a.531.531,0,0,0,.53-.53V24.53A.531.531,0,0,0,43.652,24Zm-.53,2.122H42.061V25.061h1.061Z" transform="translate(-23.835 -14.611)" fill="#0b0b0b"/>
  <path id="Path_58" data-name="Path 58" d="M15.652,33H13.53a.531.531,0,0,0-.53.53v2.122a.531.531,0,0,0,.53.53h2.122a.531.531,0,0,0,.53-.53V33.53A.531.531,0,0,0,15.652,33Zm-.53,2.122H14.061V34.061h1.061Z" transform="translate(-10.348 -18.916)" fill="#0b0b0b"/>
  <path id="Path_59" data-name="Path 59" d="M24.652,33H22.53a.531.531,0,0,0-.53.53v2.122a.531.531,0,0,0,.53.53h2.122a.531.531,0,0,0,.53-.53V33.53A.531.531,0,0,0,24.652,33Zm-.53,2.122H23.061V34.061h1.061Z" transform="translate(-14.699 -18.916)" fill="#0b0b0b"/>
  <path id="Path_60" data-name="Path 60" d="M33.652,33H31.53a.531.531,0,0,0-.53.53v2.122a.531.531,0,0,0,.53.53h2.122a.531.531,0,0,0,.53-.53V33.53A.531.531,0,0,0,33.652,33Zm-.53,2.122H32.061V34.061h1.061Z" transform="translate(-19.005 -18.916)" fill="#0b0b0b"/>
  <path id="Path_61" data-name="Path 61" d="M43.652,33H41.53a.531.531,0,0,0-.53.53v2.122a.531.531,0,0,0,.53.53h2.122a.531.531,0,0,0,.53-.53V33.53A.531.531,0,0,0,43.652,33Zm-.53,2.122H42.061V34.061h1.061Z" transform="translate(-23.835 -18.916)" fill="#0b0b0b"/>
  <path id="Path_62" data-name="Path 62" d="M15.652,42H13.53a.531.531,0,0,0-.53.53v2.122a.531.531,0,0,0,.53.53h2.122a.531.531,0,0,0,.53-.53V42.53A.531.531,0,0,0,15.652,42Zm-.53,2.122H14.061V43.061h1.061Z" transform="translate(-10.348 -23.275)" fill="#0b0b0b"/>
  <path id="Path_63" data-name="Path 63" d="M24.652,42H22.53a.531.531,0,0,0-.53.53v2.122a.531.531,0,0,0,.53.53h2.122a.531.531,0,0,0,.53-.53V42.53A.531.531,0,0,0,24.652,42Zm-.53,2.122H23.061V43.061h1.061Z" transform="translate(-14.699 -23.275)" fill="#0b0b0b"/>
  <path id="Path_64" data-name="Path 64" d="M33.652,42H31.53a.531.531,0,0,0-.53.53v2.122a.531.531,0,0,0,.53.53h2.122a.531.531,0,0,0,.53-.53V42.53A.531.531,0,0,0,33.652,42Zm-.53,2.122H32.061V43.061h1.061Z" transform="translate(-19.005 -23.275)" fill="#0b0b0b"/>
  <path id="Path_65" data-name="Path 65" d="M43.652,42H41.53a.531.531,0,0,0-.53.53v2.122a.531.531,0,0,0,.53.53h2.122a.531.531,0,0,0,.53-.53V42.53A.531.531,0,0,0,43.652,42Zm-.53,2.122H42.061V43.061h1.061Z" transform="translate(-23.835 -23.275)" fill="#0b0b0b"/>
</svg>
