<svg xmlns="http://www.w3.org/2000/svg" width="22.998" height="16.92" viewBox="0 0 22.998 16.92">
  <g id="noun_grid_2442978" transform="translate(0.01)">
    <path id="Path_90" data-name="Path 90" d="M72.487,76.262a1.453,1.453,0,0,1-.732-.4A1.253,1.253,0,0,1,71.44,75V72.69a1.162,1.162,0,0,1,.677-1.125,1.534,1.534,0,0,1,.6-.129c.746-.015,1.493,0,2.241,0a1.227,1.227,0,0,1,1.287,1.015.152.152,0,0,0,.019.036v2.721c-.008.03-.019.059-.027.09a1.115,1.115,0,0,1-.467.715,4.508,4.508,0,0,1-.555.249Z" transform="translate(-59.364 -59.349)" fill="#0b0b0b"/>
    <path id="Path_91" data-name="Path 91" d="M3.782,0a3.491,3.491,0,0,1,.536.235A1.143,1.143,0,0,1,4.825,1.25q.01,1.167,0,2.336a1.169,1.169,0,0,1-.7,1.125,1.409,1.409,0,0,1-.562.117c-.77.012-1.539.008-2.309,0A1.209,1.209,0,0,1,.024,3.846.6.6,0,0,0,0,3.782Q0,2.419,0,1.054A.335.335,0,0,1,.025.978,1.113,1.113,0,0,1,.494.249,4.4,4.4,0,0,1,1.054,0Z" transform="translate(-0.008 0)" fill="#0b0b0b"/>
    <path id="Path_92" data-name="Path 92" d="M76.24,3.782A3.561,3.561,0,0,1,76,4.32a1.142,1.142,0,0,1-1.015.507q-1.167.01-2.336,0a1.15,1.15,0,0,1-1.1-.663,1.48,1.48,0,0,1-.137-.6c-.015-.77-.01-1.539,0-2.309a1.208,1.208,0,0,1,1-1.24A.315.315,0,0,0,72.458,0h2.728a.524.524,0,0,0,.063.022,1.1,1.1,0,0,1,.734.46,4.5,4.5,0,0,1,.257.572Z" transform="translate(-59.335)" fill="#0b0b0b"/>
    <path id="Path_93" data-name="Path 93" d="M0,72.489a3.283,3.283,0,0,1,.227-.528,1.155,1.155,0,0,1,1.025-.519H3.587a1.15,1.15,0,0,1,1.1.663,1.48,1.48,0,0,1,.137.6c.015.77.01,1.539,0,2.309a1.208,1.208,0,0,1-1,1.243.291.291,0,0,0-.049.02H1.054a.52.52,0,0,0-.063-.022,1.111,1.111,0,0,1-.742-.472A4.184,4.184,0,0,1,0,75.217Z" transform="translate(-0.008 -59.358)" fill="#0b0b0b"/>
    <path id="Path_94" data-name="Path 94" d="M-.008,36.806a3.672,3.672,0,0,1,.259-.555,1.05,1.05,0,0,1,.895-.472H3.63a1.2,1.2,0,0,1,1.184,1.226c0,.788.01,1.576,0,2.368A1.184,1.184,0,0,1,3.63,40.6c-.815.019-1.63.017-2.444,0a1.176,1.176,0,0,1-1.169-.954.221.221,0,0,0-.027-.074Q-.008,38.184-.008,36.806Z" transform="translate(0 -29.728)" fill="#0b0b0b"/>
    <path id="Path_95" data-name="Path 95" d="M76.223,39.5a3.469,3.469,0,0,1-.25.545,1.062,1.062,0,0,1-.9.48c-.832,0-1.666.02-2.5,0A1.174,1.174,0,0,1,71.388,39.3c-.01-.788,0-1.576,0-2.368a1.2,1.2,0,0,1,1.184-1.226c.815,0,1.63-.014,2.444,0a1.184,1.184,0,0,1,1.17.967.448.448,0,0,0,.024.061V39.5Z" transform="translate(-59.318 -29.666)" fill="#0b0b0b"/>
    <path id="Path_96" data-name="Path 96" d="M36.773,76.277A3.846,3.846,0,0,1,36.2,76a1.015,1.015,0,0,1-.447-.846c-.015-.57-.01-1.162-.012-1.754v-.77a1.2,1.2,0,0,1,1.226-1.184h2.368a1.2,1.2,0,0,1,1.225,1.184c0,.824.015,1.647,0,2.471a1.169,1.169,0,0,1-.966,1.157.454.454,0,0,0-.061.024H36.773Z" transform="translate(-29.703 -59.364)" fill="#0b0b0b"/>
    <path id="Path_97" data-name="Path 97" d="M39.5,0a1.558,1.558,0,0,1,.611.271,1.1,1.1,0,0,1,.438.832c.015.677.01,1.341.012,2.011v.507a1.2,1.2,0,0,1-1.243,1.2H36.978a1.172,1.172,0,0,1-1.233-1.184c-.022-.824-.019-1.647,0-2.471A1.155,1.155,0,0,1,36.706.024.457.457,0,0,0,36.765,0Z" transform="translate(-29.695 0)" fill="#0b0b0b"/>
    <path id="Path_98" data-name="Path 98" d="M40.559,38.152c0,.431.015.864,0,1.3a1.142,1.142,0,0,1-1.1,1.1q-1.3.03-2.6,0a1.133,1.133,0,0,1-1.094-1.1q-.029-1.3,0-2.6a1.132,1.132,0,0,1,1.093-1.1q1.309-.03,2.618,0a1.142,1.142,0,0,1,1.088,1.088c.019.436,0,.873,0,1.309h0Z" transform="translate(-29.708 -29.695)" fill="#0b0b0b"/>
    <path id="Path_99" data-name="Path 99" d="M72.487,76.262a1.453,1.453,0,0,1-.732-.4A1.253,1.253,0,0,1,71.44,75V72.69a1.162,1.162,0,0,1,.677-1.125,1.534,1.534,0,0,1,.6-.129c.746-.015,1.493,0,2.241,0a1.227,1.227,0,0,1,1.287,1.015.152.152,0,0,0,.019.036v2.721c-.008.03-.019.059-.027.09a1.115,1.115,0,0,1-.467.715,4.508,4.508,0,0,1-.555.249Z" transform="translate(-53.281 -59.349)" fill="#0b0b0b"/>
    <path id="Path_100" data-name="Path 100" d="M76.24,3.782A3.561,3.561,0,0,1,76,4.32a1.142,1.142,0,0,1-1.015.507q-1.167.01-2.336,0a1.15,1.15,0,0,1-1.1-.663,1.48,1.48,0,0,1-.137-.6c-.015-.77-.01-1.539,0-2.309a1.208,1.208,0,0,1,1-1.24A.315.315,0,0,0,72.458,0h2.728a.524.524,0,0,0,.063.022,1.1,1.1,0,0,1,.734.46,4.5,4.5,0,0,1,.257.572Z" transform="translate(-53.252)" fill="#0b0b0b"/>
    <path id="Path_101" data-name="Path 101" d="M76.223,39.5a3.469,3.469,0,0,1-.25.545,1.062,1.062,0,0,1-.9.48c-.832,0-1.666.02-2.5,0A1.174,1.174,0,0,1,71.388,39.3c-.01-.788,0-1.576,0-2.368a1.2,1.2,0,0,1,1.184-1.226c.815,0,1.63-.014,2.444,0a1.184,1.184,0,0,1,1.17.967.448.448,0,0,0,.024.061V39.5Z" transform="translate(-53.236 -29.666)" fill="#0b0b0b"/>
  </g>
</svg>
