<svg xmlns="http://www.w3.org/2000/svg" width="20" height="14.715" viewBox="0 0 20 14.715">
  <g id="ikoni_grid" transform="translate(0)">
    <path id="Path_90" data-name="Path 90" d="M72.326,75.522a1.23,1.23,0,0,1-.62-.338,1.061,1.061,0,0,1-.266-.732V72.5a.984.984,0,0,1,.573-.952,1.3,1.3,0,0,1,.508-.109c.632-.013,1.265,0,1.9,0a1.039,1.039,0,0,1,1.09.859.129.129,0,0,0,.016.03v2.3c-.007.026-.016.05-.023.076a.944.944,0,0,1-.4.606,3.816,3.816,0,0,1-.47.211Z" transform="translate(-60.856 -60.813)" fill="#fff"/>
    <path id="Path_91" data-name="Path 91" d="M3.2,0a2.956,2.956,0,0,1,.454.2.968.968,0,0,1,.43.859q.009.988,0,1.978a.99.99,0,0,1-.59.952,1.193,1.193,0,0,1-.476.1c-.652.01-1.3.007-1.955,0A1.024,1.024,0,0,1,.02,3.257.51.51,0,0,0,0,3.2Q0,2.048,0,.892A.284.284,0,0,1,.021.828a.942.942,0,0,1,.4-.617A3.724,3.724,0,0,1,.892,0Z" transform="translate(0.001 0)" fill="#fff"/>
    <path id="Path_92" data-name="Path 92" d="M75.5,3.2a3.015,3.015,0,0,1-.2.455.967.967,0,0,1-.859.43q-.988.009-1.978,0a.974.974,0,0,1-.934-.561,1.253,1.253,0,0,1-.116-.5c-.013-.652-.009-1.3,0-1.955a1.023,1.023,0,0,1,.844-1.05A.267.267,0,0,0,72.3,0h2.31a.444.444,0,0,0,.053.019.931.931,0,0,1,.622.39A3.806,3.806,0,0,1,75.5.892Z" transform="translate(-60.826 0)" fill="#fff"/>
    <path id="Path_93" data-name="Path 93" d="M0,72.329a2.78,2.78,0,0,1,.192-.447.978.978,0,0,1,.868-.44H3.038A.974.974,0,0,1,3.972,72a1.253,1.253,0,0,1,.116.5c.013.652.009,1.3,0,1.955a1.023,1.023,0,0,1-.846,1.053.246.246,0,0,0-.042.017H.892a.44.44,0,0,0-.053-.019.941.941,0,0,1-.629-.4A3.543,3.543,0,0,1,0,74.639Z" transform="translate(0.001 -60.822)" fill="#fff"/>
    <path id="Path_94" data-name="Path 94" d="M-.009,36.649a3.109,3.109,0,0,1,.219-.47.889.889,0,0,1,.758-.4h2.1a1.014,1.014,0,0,1,1,1.038c0,.667.009,1.335,0,2.005a1,1,0,0,1-1,1.036c-.69.016-1.381.014-2.07,0a1,1,0,0,1-.99-.808.187.187,0,0,0-.023-.063Q-.009,37.816-.009,36.649Z" transform="translate(0.01 -30.461)" fill="#fff"/>
    <path id="Path_95" data-name="Path 95" d="M75.482,38.919a2.937,2.937,0,0,1-.212.461.9.9,0,0,1-.765.407c-.7,0-1.411.017-2.115,0a.994.994,0,0,1-1-1.034c-.009-.667,0-1.335,0-2.005a1.014,1.014,0,0,1,1-1.038c.69,0,1.381-.011,2.07,0a1,1,0,0,1,.991.819.38.38,0,0,0,.02.052v2.339Z" transform="translate(-60.809 -30.398)" fill="#fff"/>
    <path id="Path_96" data-name="Path 96" d="M36.615,75.537a3.256,3.256,0,0,1-.487-.233.859.859,0,0,1-.378-.716c-.013-.483-.009-.984-.01-1.485v-.652a1.015,1.015,0,0,1,1.038-1h2.005a1.013,1.013,0,0,1,1.037,1c0,.7.013,1.4,0,2.093a.99.99,0,0,1-.818.98.384.384,0,0,0-.052.02H36.615Z" transform="translate(-30.445 -60.828)" fill="#fff"/>
    <path id="Path_97" data-name="Path 97" d="M38.919,0a1.319,1.319,0,0,1,.517.229.93.93,0,0,1,.371.7c.013.573.009,1.136.01,1.7v.43a1.02,1.02,0,0,1-1.053,1.02H36.787a.993.993,0,0,1-1.044-1c-.019-.7-.016-1.4,0-2.093A.978.978,0,0,1,36.556.02a.387.387,0,0,0,.05-.02Z" transform="translate(-30.436 0)" fill="#fff"/>
    <path id="Path_98" data-name="Path 98" d="M39.822,37.782c0,.365.013.732,0,1.1a.967.967,0,0,1-.932.935q-1.1.026-2.206,0a.96.96,0,0,1-.927-.928q-.024-1.1,0-2.206a.958.958,0,0,1,.925-.928q1.109-.026,2.217,0a.967.967,0,0,1,.921.921c.016.37,0,.739,0,1.109h0Z" transform="translate(-30.449 -30.428)" fill="#fff"/>
    <path id="Path_99" data-name="Path 99" d="M72.326,75.522a1.23,1.23,0,0,1-.62-.338,1.061,1.061,0,0,1-.266-.732V72.5a.984.984,0,0,1,.573-.952,1.3,1.3,0,0,1,.508-.109c.632-.013,1.265,0,1.9,0a1.039,1.039,0,0,1,1.09.859.129.129,0,0,0,.016.03v2.3c-.007.026-.016.05-.023.076a.944.944,0,0,1-.4.606,3.816,3.816,0,0,1-.47.211Z" transform="translate(-55.529 -60.813)" fill="#fff"/>
    <path id="Path_100" data-name="Path 100" d="M75.5,3.2a3.015,3.015,0,0,1-.2.455.967.967,0,0,1-.859.43q-.988.009-1.978,0a.974.974,0,0,1-.934-.561,1.253,1.253,0,0,1-.116-.5c-.013-.652-.009-1.3,0-1.955a1.023,1.023,0,0,1,.844-1.05A.267.267,0,0,0,72.3,0h2.31a.444.444,0,0,0,.053.019.931.931,0,0,1,.622.39A3.806,3.806,0,0,1,75.5.892Z" transform="translate(-55.499 0)" fill="#fff"/>
    <path id="Path_101" data-name="Path 101" d="M75.482,38.919a2.937,2.937,0,0,1-.212.461.9.9,0,0,1-.765.407c-.7,0-1.411.017-2.115,0a.994.994,0,0,1-1-1.034c-.009-.667,0-1.335,0-2.005a1.014,1.014,0,0,1,1-1.038c.69,0,1.381-.011,2.07,0a1,1,0,0,1,.991.819.38.38,0,0,0,.02.052v2.339Z" transform="translate(-55.482 -30.398)" fill="#fff"/>
  </g>
</svg>
