<svg xmlns="http://www.w3.org/2000/svg" width="63.1" height="72.338" viewBox="0 0 63.1 72.338">
  <g id="ikoni_tilat" transform="translate(0.432 0.383)">
    <path id="Path_109" data-name="Path 109" d="M293.415,439.623a1.729,1.729,0,0,1-.277.371,1.649,1.649,0,0,1-2.332.014h0a.9.9,0,1,0-1.267,1.286,3.435,3.435,0,0,0,2.45,1,3.621,3.621,0,0,0,.489-.037A3.459,3.459,0,0,0,295,440.491a.9.9,0,0,0-1.549-.929c-.012.019-.021.038-.031.058Z" transform="translate(-268.015 -380.944)" fill="#121212"/>
    <path id="Path_110" data-name="Path 110" d="M303.252,436.928a.9.9,0,1,0-1.441,1.086h0a3.462,3.462,0,0,0,5.528,0,.9.9,0,0,0-1.446-1.083,1.651,1.651,0,0,1-2.633,0Z" transform="translate(-264.84 -381.759)" fill="#121212"/>
    <path id="Path_111" data-name="Path 111" d="M306.742,426.68a10.022,10.022,0,0,0-6.535,5.757,9.91,9.91,0,0,0-4.187-2.24,2.551,2.551,0,0,1-.557-.212,2.629,2.629,0,0,1-1.122-3.543.9.9,0,0,0-1.6-.832,4.386,4.386,0,0,0-.458,2.6,5.045,5.045,0,0,0-2.774-1.247,1.689,1.689,0,0,0-1.783,1.285l-.441,1.973a2.81,2.81,0,0,0-2.361,1.9H282.9a1.654,1.654,0,0,0-1.636,1.454,4.9,4.9,0,0,0,2.437,4.858,9.929,9.929,0,0,0,9.807,11.426,10.07,10.07,0,0,0,9.233-6.151,9.981,9.981,0,1,0,6.671-17.388,1.471,1.471,0,0,1-.348-.044,1.437,1.437,0,1,1,.707-2.785.9.9,0,0,0,.464-1.741h-.021a3.239,3.239,0,0,0-3.583,4.8C306.663,426.583,306.706,426.626,306.742,426.68Zm-14.615,5.433h-1.879a2.822,2.822,0,0,0-1.2-1.5l.41-1.833a3.134,3.134,0,0,1,2.668,3.333Zm-4.546-.124a1.019,1.019,0,1,1-1.018,1.02h0a1.019,1.019,0,0,1,1.016-1.02Zm-4.543,1.921h1.88a2.817,2.817,0,0,0,1.2,1.5l-.41,1.831a3.134,3.134,0,0,1-2.671-3.333Zm8.725,13.935a8.1,8.1,0,0,1-6.323-8.837c.075.013.144.038.221.046.057,0,.116.008.169.008a1.655,1.655,0,0,0,1.609-1.293l.441-1.973a2.814,2.814,0,0,0,2.361-1.889h2.018a1.651,1.651,0,0,0,1.64-1.458,4.866,4.866,0,0,0-.056-1.393,4.446,4.446,0,0,0,.779.521,4.35,4.35,0,0,0,.944.36,8.113,8.113,0,0,1,4.041,2.476,9.857,9.857,0,0,0,1.741,7.733,8.193,8.193,0,0,1-9.585,5.7Zm25.826-11.561a8.178,8.178,0,1,1-8.178-8.178h0a8.187,8.187,0,0,1,8.18,8.181Z" transform="translate(-269.843 -385.101)" fill="#121212" stroke="#000" stroke-miterlimit="10" stroke-width="0.25"/>
    <path id="Path_112" data-name="Path 112" d="M334.18,432.488l-2.77-1.565V417.088a.813.813,0,0,0-.813-.813h-7.82a.813.813,0,0,0-.813.813v8.491L304.3,415.591V393.742a.813.813,0,0,0-.353-.667.8.8,0,0,0-.747-.094l-19.878,7.388a.813.813,0,0,0,0,1.53l19.346,7.193v6.5l-29.882,16.9a.814.814,0,1,0,.786,1.425l.015-.008,1.968-1.113v25.72a6,6,0,0,0,5.994,5.993h43.867a6,6,0,0,0,5.992-5.992V432.79l1.968,1.114a.816.816,0,0,0,.816-1.412Zm-10.594-14.579h6.195v12.1l-6.195-3.5Zm-37.644-16.774,16.731-6.22v12.44Zm43.844,57.384a4.37,4.37,0,0,1-4.366,4.366h-43.87a4.37,4.37,0,0,1-4.367-4.366V431.871L303.481,417l26.3,14.871Z" transform="translate(-272.362 -392.928)" fill="#121212" stroke="#000" stroke-miterlimit="10" stroke-width="0.75"/>
  </g>
</svg>
