<svg xmlns="http://www.w3.org/2000/svg" width="20" height="19.993" viewBox="0 0 20 19.993">
  <g id="noun_clock_887759" transform="translate(-9 -957.362)">
    <path id="Path_1695" data-name="Path 1695" d="M15,5a10,10,0,1,0,10,9.993A10,10,0,0,0,15,5Zm0,1.333a8.667,8.667,0,1,1-8.674,8.66A8.657,8.657,0,0,1,15,6.333Zm-.007,1.319a.667.667,0,0,0-.66.681V15a.667.667,0,0,0,.194.465l3.111,3.111a.667.667,0,1,0,.944-.937l-2.917-2.917V8.333a.667.667,0,0,0-.674-.681ZM8.111,14.111A.889.889,0,1,0,9,15,.889.889,0,0,0,8.111,14.111Zm13.778,0a.889.889,0,1,0,.889.889A.889.889,0,0,0,21.889,14.111ZM15,21a.889.889,0,1,0,.889.889A.889.889,0,0,0,15,21Z" transform="translate(4 952.362)" fill="#121212"/>
  </g>
</svg>
