<svg xmlns="http://www.w3.org/2000/svg" width="135.763" height="42.886" viewBox="0 0 135.763 42.886">
  <g id="Layer_2" data-name="Layer 2" transform="translate(0 -0.002)">
    <g id="Layer_1" data-name="Layer 1" transform="translate(0 0.002)">
      <path id="Path_1537" data-name="Path 1537" d="M101.69,14.117a29.985,29.985,0,0,1-12.318,8.976c-14.354,5.269-29.139-8.465-42.764-2.51-1.7.73-3.875,2.634-4.379,2.488,3.05-3.423,6.648-6.94,10.523-8.837,16.93-8.319,30.3,9.217,48.893-.117Z" transform="translate(-11.413 -3.224)" fill="#fff"/>
      <path id="Path_1538" data-name="Path 1538" d="M126.621,1.708a23.242,23.242,0,0,1-9.567,6.969C105.9,12.771,94.432,2.11,83.829,6.729c-1.321.569-2.977,2.029-3.379,1.934C82.822,6,85.609,3.27,88.623,1.8c13.136-6.458,23.542,7.159,38-.088Z" transform="translate(-21.741 -0.002)" fill="#fff"/>
      <path id="Path_1539" data-name="Path 1539" d="M1.379,49.237c0,4.094,0,4.335-1.379,4.379v.372H7.677c0-.9,0-1.686.095-2.81H7.414a2,2,0,0,1-.35,1.182,1.459,1.459,0,0,1-1.153.358H3.291c-.306,0-.416-.095-.416-.4V45.829c0-3.831,0-4.094,1.328-4.094V41.37H.029v.365c1.35,0,1.35.263,1.35,4.094v3.408Z" transform="translate(0 -11.182)" fill="#fff"/>
      <path id="Path_1540" data-name="Path 1540" d="M20.549,50.23c1.138,3.05,1.255,3.291-.124,3.291v.372h3.955v-.372c-.934,0-1.044-.255-2.634-4.379L18.681,41.13H18.36l-3.211,8.027c-1.642,4.094-1.788,4.379-2.729,4.379v.372H16.3v-.372c-1.416,0-1.314-.255-.109-3.291Zm-3.963-1.168v-.044c1.591-4.145,1.7-4.481,1.781-4.773h0c.066.306.2.628,1.708,4.773l.066.044Z" transform="translate(-3.356 -11.117)" fill="#fff" fill-rule="evenodd"/>
      <path id="Path_1541" data-name="Path 1541" d="M31.84,49.224c0,4.094,0,4.379-1.3,4.379v.372H34.65V53.6c-1.35,0-1.365-.255-1.365-3.8v-.817a11.23,11.23,0,0,0,1.2,0,5.553,5.553,0,0,0,2.138-.6,3.525,3.525,0,0,0,1.46-1.46,4,4,0,0,0,.5-1.941,3.306,3.306,0,0,0-1.992-3.226,5.838,5.838,0,0,0-2.467-.431H30.49v.358c1.335,0,1.335.241,1.335,4.057v3.423Zm5.2-4.145a3.364,3.364,0,0,1-.343,1.4,2.408,2.408,0,0,1-1.044.978,3.809,3.809,0,0,1-1.576.336,7.467,7.467,0,0,1-.817,0v-5.2h.963a3.517,3.517,0,0,1,1.605.336,2.3,2.3,0,0,1,1.189,2.189h0Z" transform="translate(-8.24 -11.169)" fill="#fff" fill-rule="evenodd"/>
      <path id="Path_1542" data-name="Path 1542" d="M45.413,49.224c0,4.094,0,4.379-1.3,4.379v.372h4.109V53.6c-1.343,0-1.365-.255-1.365-3.8v-.817a11.215,11.215,0,0,0,1.2,0,5.517,5.517,0,0,0,2.138-.6,3.481,3.481,0,0,0,1.46-1.46,3.919,3.919,0,0,0,.5-1.941,3.313,3.313,0,0,0-1.992-3.226,5.882,5.882,0,0,0-2.474-.431H44.07v.358c1.328,0,1.328.241,1.328,4.057v3.423Zm5.174-4.145a3.364,3.364,0,0,1-.321,1.4,2.372,2.372,0,0,1-1.044.978,3.773,3.773,0,0,1-1.569.336,7.632,7.632,0,0,1-.825,0v-5.2h.963a3.5,3.5,0,0,1,1.605.336,2.3,2.3,0,0,1,1.189,2.189h0Z" transform="translate(-11.91 -11.169)" fill="#fff" fill-rule="evenodd"/>
      <path id="Path_1543" data-name="Path 1543" d="M59.02,49.226c0,4.094,0,4.379-1.27,4.379v.372h7.56c0-.919.066-1.927.117-2.7h-.358c-.146,1.3-.591,1.416-1.46,1.46H61.2c-.613,0-.642-.051-.642-.679V48.1h1.89c1.416,0,1.8.044,1.9.949h.336c0-.518-.066-1.044-.066-1.605a8.529,8.529,0,0,1,.066-1.365h-.336c-.146.781-.576.847-1.97.847H60.53V42.549h2.51c1.335,0,1.591.241,1.657,1.554h.35c0-.963.051-1.89.109-2.773H57.823v.365c1.189,0,1.189.263,1.189,4.094V49.2Z" transform="translate(-15.607 -11.171)" fill="#fff"/>
      <path id="Path_1544" data-name="Path 1544" d="M73.14,49.226c0,4.094,0,4.379-1.27,4.379v.372h7.568c0-.919.058-1.927.109-2.7H79.2c-.146,1.3-.6,1.416-1.459,1.46H75.329c-.613,0-.642-.051-.642-.679V48.1h1.9c1.408,0,1.8.044,1.89.949h.336c0-.518-.058-1.044-.058-1.605a9.584,9.584,0,0,1,.058-1.365h-.336c-.109.781-.511.817-1.941.817H74.65V42.549h2.518c1.335,0,1.591.241,1.657,1.554h.35c0-.963.051-1.89.117-2.773H71.95v.365c1.189,0,1.189.263,1.189,4.094V49.2Z" transform="translate(-19.423 -11.171)" fill="#fff"/>
      <path id="Path_1545" data-name="Path 1545" d="M96.62,45.841c0-3.839,0-4.13,1.219-4.13v-.365H93.906v.365c1.408,0,1.408.292,1.408,4.13V50.9h-.051c-.832-1.109-1.357-1.722-2.087-2.583-1.16-1.35-2.97-3.5-5.94-7.035h-.292V49.2c0,4.072,0,4.379-1.394,4.379v.372h4.116v-.372c-1.387,0-1.387-.292-1.387-4.379V44.52h0c.817,1.065,1.394,1.766,2.189,2.649l5.838,6.874H96.6v-8.2Z" transform="translate(-23.12 -11.157)" fill="#fff"/>
      <path id="Path_1546" data-name="Path 1546" d="M106.514,49.239c0,4.094,0,4.379-1.314,4.379v.372h4.043v-.372c-1.27,0-1.284-.255-1.284-3.919v-.992h1.073c1.08,1.627,2.109,3.2,3.182,4.8a.956.956,0,0,0,.817.416h2.138v-.35a2.109,2.109,0,0,1-1.722-1.058c-1.744-2.5-2.277-3.226-2.919-4.094h0a4.028,4.028,0,0,0,1.226-.657,3.649,3.649,0,0,0,1.328-2.875,3.189,3.189,0,0,0-2.036-3.189,6.2,6.2,0,0,0-2.138-.321H105.2v.336c1.335,0,1.335.263,1.335,4.094v3.408Zm5.028-4.269a2.5,2.5,0,0,1-1.044,2.116,3.167,3.167,0,0,1-1.751.467,5.443,5.443,0,0,1-.788-.036V42.605c.241,0,.657-.044,1.044-.044a2.261,2.261,0,0,1,2.54,2.386h0Z" transform="translate(-28.43 -11.184)" fill="#fff" fill-rule="evenodd"/>
      <path id="Path_1547" data-name="Path 1547" d="M127.743,50.225c1.138,3.05,1.248,3.291-.131,3.291v.372h3.955v-.372c-.934,0-1.044-.255-2.634-4.379l-3.1-8.027h-.321L122.3,49.137c-1.635,4.094-1.781,4.379-2.729,4.379v.372h3.89v-.372c-1.416,0-1.321-.255-.117-3.291Zm-3.97-1.168v-.044c1.584-4.145,1.7-4.481,1.781-4.773h0c.066.306.19.628,1.7,4.773v.044Z" transform="translate(-32.313 -11.111)" fill="#fff" fill-rule="evenodd"/>
      <path id="Path_1548" data-name="Path 1548" d="M148.578,45.841c0-3.839,0-4.13,1.219-4.13v-.365h-3.933v.365c1.416,0,1.416.292,1.416,4.13V50.9h-.051c-.846-1.109-1.343-1.722-2.1-2.583-1.153-1.35-2.97-3.5-5.94-7.035H138.9V49.2c0,4.072,0,4.379-1.4,4.379v.372h4.116v-.372c-1.379,0-1.379-.292-1.379-4.379V44.52h0c.817,1.065,1.4,1.766,2.189,2.649l5.875,6.874h.292v-8.2Z" transform="translate(-37.159 -11.157)" fill="#fff"/>
      <path id="Path_1549" data-name="Path 1549" d="M160.716,49.242c0,4.109,0,4.379-1.46,4.379v.372h4.379v-.372c-1.459,0-1.459-.241-1.459-4.379V42.565h2.262c1.219,0,1.5.285,1.554,1.671h.365V41.39H156.52v2.861h.35c.109-1.365.387-1.671,1.635-1.671h2.233v6.663Z" transform="translate(-42.299 -11.187)" fill="#fff"/>
      <path id="Path_1550" data-name="Path 1550" d="M177.769,50.225c1.146,3.05,1.255,3.291-.124,3.291v.372H181.6v-.372c-.927,0-1.044-.255-2.627-4.379l-3.1-8.027h-.321l-3.211,8.027c-1.635,4.094-1.781,4.379-2.729,4.379v.372h3.882v-.372c-1.408,0-1.314-.255-.109-3.291Zm-3.963-1.168v-.044c1.591-4.145,1.708-4.481,1.788-4.773h0c.066.306.19.628,1.7,4.773v.044Z" transform="translate(-45.837 -11.111)" fill="#fff" fill-rule="evenodd"/>
    </g>
  </g>
</svg>
