<svg xmlns="http://www.w3.org/2000/svg" xmlns:xlink="http://www.w3.org/1999/xlink" width="609.572" height="387.009" viewBox="0 0 609.572 387.009"><defs><style>.a{fill:#1c67dc;opacity:0.598;}.b{fill:#bbe0f7;}.b,.y{opacity:0.5;}.c,.j,.k,.n,.o{fill:#ccc;}.d{fill:#aaa;}.e{fill:url(#a);}.aa,.f,.q,.r,.s,.t,.u,.v,.w,.x{fill:none;}.aa,.f{stroke:#27262d;}.aa,.f,.o{stroke-linecap:round;}.aa,.f,.j,.k,.l,.n,.o,.q,.r,.s,.t,.u,.v,.w,.x{stroke-miterlimit:10;}.f{stroke-width:1.023px;}.g{fill:url(#b);}.h{fill:#656d78;}.i{fill:url(#c);}.j,.k,.l,.n,.o{stroke:#999;}.j{stroke-width:0.77px;}.k{stroke-width:0.831px;}.l{fill:#fff;}.l,.o{stroke-width:0.758px;}.m{fill:#f2faff;opacity:0.8;}.n{stroke-width:0.736px;}.p{fill:#27262d;}.q,.t,.u{stroke:#f6f6f6;}.q,.r,.w{stroke-width:1.121px;}.q,.t,.u,.v,.w,.x{opacity:0.75;}.r,.s,.v,.w,.x{stroke:#e6e6e6;}.s,.t,.v{stroke-width:1.289px;}.u,.x{stroke-width:0.906px;}.y{fill:#f6f6f6;}.z{fill:url(#d);}</style><linearGradient id="a" y1="0.428" x2="1" y2="0.5" gradientUnits="objectBoundingBox"><stop offset="0" stop-color="#27262d"/><stop offset="0.039" stop-color="#2b2b32"/><stop offset="0.395" stop-color="#5b636d"/><stop offset="0.562" stop-color="#656d78"/><stop offset="1" stop-color="#656d78"/></linearGradient><linearGradient id="b" x1="0.056" y1="0.22" x2="0.975" y2="0.889" gradientUnits="objectBoundingBox"><stop offset="0" stop-color="#27262d"/><stop offset="0.313" stop-color="#58606a"/><stop offset="0.458" stop-color="#656d78"/><stop offset="1" stop-color="#656d78"/></linearGradient><linearGradient id="c" x1="0.129" y1="0.149" x2="0.711" y2="0.923" gradientUnits="objectBoundingBox"><stop offset="0" stop-color="#27262d"/><stop offset="0.15" stop-color="#3d4149"/><stop offset="0.332" stop-color="#505760"/><stop offset="0.705" stop-color="#656d78"/><stop offset="1" stop-color="#656d78"/></linearGradient><linearGradient id="d" x1="0.309" y1="0.893" x2="0.694" y2="-0.068" gradientUnits="objectBoundingBox"><stop offset="0" stop-color="#27262d"/><stop offset="0.183" stop-color="#515861"/><stop offset="0.425" stop-color="#656d78"/><stop offset="1" stop-color="#656d78"/></linearGradient></defs><path class="a" d="M-574.418,516.225c-46.666-6.107-188.045-36.688-175.94-87.178,12.541-52.3,97.346-13.549,135.2-41.787,2.583-1.927,27.848-17.75,36.183-19.2,30.8-5.361,41.717,8.317,96.066-2.9,27.693-5.718,134.339-58.16,173.94-8.128,37.172,46.967,42.375,27.513,93.513,34.755,30.716,4.35,76.689,28.3,73.805,47.966-3.707,25.28-59.332,28.562-86.272,46.125-69.595,45.37-117.109,104.081-208.525,86.626C-492.569,561.784-530.944,521.915-574.418,516.225Z" transform="translate(751.09 -188.642)"/><path class="b" d="M-559.992,504.322c-44.1-5.273-181.884-32.745-178-71,5.039-49.651,93.373-7.993,128.785-51.034,2.754-3.348,24.343-5.412,29.244-5.6,31.554-1.229,43.122,6.164,94.525-3.883,26.191-5.12,104.217-84.143,164.441-7.624,33.448,42.5,39.986,24.184,88.307,30.447,29.024,3.762,73.785,20.923,69.643,42.163-4.347,22.3-58.48,22.773-85.1,40.634-64.388,43.2-118.88,87.425-190.391,70.1C-483.12,537.729-518.912,509.234-559.992,504.322Z" transform="translate(753.572 -189.329)"/><path class="b" d="M-547.788,489.278c-37.446-4.477-154.453-27.806-151.156-60.289,4.613-45.443,94.122.357,115.509-53.243,12.494-31.314,55.3,10.382,98.956,1.85,22.242-4.349,88.5-71.453,139.642-6.474,28.4,36.087,33.955,20.537,74.989,25.854,24.647,3.195,62.657,17.768,59.14,35.8-3.692,18.937-49.661,19.339-72.265,34.5-54.676,36.686-100.95,74.24-161.676,59.532C-482.51,517.647-512.9,493.449-547.788,489.278Z" transform="translate(761.022 -187.241)"/><path class="c" d="M-262.216,451.415c11.907-6.43,25.372-119.556-154.169-123.288-204.321-4.247-175.405,49.238-207.9,51.387-35.8,2.368-56.9,21.575-56.9,63.021C-681.187,476.576-347.356,497.395-262.216,451.415Z" transform="translate(764.422 -190.111)"/><path class="d" d="M-626.891,375.716c-30.846,2.041-49.031,18.592-49.032,54.306,0,14.639,42.429,21.737,57.909,9.773C-599.36,425.378-612.863,374.788-626.891,375.716Z" transform="translate(765.426 -180.991)"/><path class="d" d="M-329.342,358.208c2.8,7.546-23.119,22.868-101.091,25.438-149.206,4.919-170.13-23.474-152-37.556,14.142-10.983,73.455-10.6,129.735-8.627C-404.117,339.166-335.395,341.922-329.342,358.208Z" transform="translate(782.21 -188.491)"/><g transform="translate(126.324)"><g transform="translate(0 38.295)"><path class="e" d="M-558.139,288.561s-7.043-2.19-12.956-12.254c-1.948-3.316-22.914-44.568-54.309-28.1-5.994,3.144-20.583,12.209-19.543,16.161,1.913,7.279,24.005,6.755,38.621,10.355,14.138,3.482,42.315,22.226,42.315,22.226" transform="translate(645 -244.341)"/><path class="f" d="M-644.465,262.353c2.23-1.384,17.155-16.821,25.109-13.509" transform="translate(645.102 -243.571)"/><path class="f" d="M-644.522,263.688c2.322-1.361,15.282-15.672,25.076-11.691" transform="translate(645.092 -243.014)"/><path class="f" d="M-643.855,264.035c2.036-1.534,16.225-12.248,25.416-8.9" transform="translate(645.219 -242.405)"/><path class="f" d="M-642.777,264.244c2.687-1.328,18.884-8.523,26.746-3.909" transform="translate(645.424 -241.582)"/></g><g transform="translate(7.247 42.997)"><path class="g" d="M-567.409,317.811s-4.263-2.049-6.275-2.879c-3.464-1.428-9.26-3.7-15.165-5.509a89.011,89.011,0,0,0-10.926-2.559c-31.81-5.4-44.239-30.649-37.253-37.764,7.393-7.53-1.149-19.946,3-20.72,7.633-1.426,23.363,14.374,29.627,29.318,4.44,10.6,37.859,26.981,37.859,26.981" transform="translate(638.914 -248.289)"/><path class="f" d="M-638.488,269.513c.5,2.662,4.142,11.085,10.247,15.346" transform="translate(638.996 -244.242)"/><path class="f" d="M-637.427,266.432c.579,2.716,5.314,13.99,11.476,16.308" transform="translate(639.198 -244.829)"/><path class="f" d="M-635.416,263.86c.737,2.524,6.226,14.332,11.857,17.043" transform="translate(639.582 -245.32)"/><path class="f" d="M-634.527,256.287c.857,2.972,6.638,19.2,15.624,21.98" transform="translate(639.751 -246.764)"/></g><g transform="translate(75.621)"><path class="h" d="M-421.454,277.074c-25.092,3.223-44.287-9.14-69.785-13.8-26.982-4.933-53.909-.713-73.033,13.709-6.842,5.159-12.737,14.427-15.568,24.256-8.871,30.805,19.292,66.082,53.478,83.375,56.041,28.349,139.887,18.094,165.427-1.087,47.165-35.422,47.789-92.046,49.347-101.225,1.393-8.205.71-23.911-.073-29.387-3.589-25.084-12.225-38.544-37.479-40.622-27.81-2.286-36.869,31.345-41.959,41.526-.653,1.3-3.672,10.189-8.93,11.382-1.4.318-2.995-1.947-4.493-4.043a63.621,63.621,0,0,1-9.2-25.663c-1.125-9.5-3.008-14.159-6.847-16.786-2.828-1.935-9.626,1.357-15.621,10.492-5.917,9.014-7.708,12.948.769,26.947C-433.851,258.746-421.454,277.074-421.454,277.074Z" transform="translate(581.492 -212.18)"/><path class="i" d="M-443.993,276.1l21.426-11.876c-1.4.319-3-1.947-4.493-4.041a63.631,63.631,0,0,1-9.2-25.664c-1.126-9.5-3.008-14.159-6.847-16.786-2.828-1.935-9.627,1.357-15.622,10.491-5.916,9.014-7.706,12.949.769,26.947C-456.389,257.769-443.993,276.1-443.993,276.1Z" transform="translate(603.949 -211.223)"/></g><path class="j" d="M-431.021,340.854" transform="translate(685.813 -187.638)"/><path class="k" d="M-571.029,281.19" transform="translate(659.109 -199.017)"/><path class="l" d="M-444.864,252.795" transform="translate(683.172 -204.433)"/><path class="m" d="M-364.312,261.944c-1.23,3.65-3.528,6.425-9.133,4.157-7.354-2.977-6.258-6.6-5.053-9.435,1.506-3.545,5.858-5.76,9.508-4.53S-363.082,258.294-364.312,261.944Z" transform="translate(695.664 -204.624)"/><path class="m" d="M-397.052,249.107c1.692,3.464,2.008,7.059-3.581,9.387-7.333,3.053-9.1-.3-10.238-3.166-1.421-3.584.121-8.223,3.586-9.915S-398.744,245.642-397.052,249.107Z" transform="translate(689.556 -205.96)"/><path class="n" d="M-417.26,255.369" transform="translate(688.437 -203.942)"/><path class="n" d="M-366.714,260.379" transform="translate(698.078 -202.987)"/><path class="o" d="M-374.367,255.088" transform="translate(696.618 -203.996)"/><path class="p" d="M-392.515,247.5c.617-2.933,2.1.682,5.03,1.3s6.208-2,5.59.936-4.942,3.954-6.272,3.788S-393.133,250.435-392.515,247.5Z" transform="translate(693.144 -205.659)"/><path class="f" d="M-388.9,252.218a9.2,9.2,0,0,0,6.364,10.343,9.219,9.219,0,0,0,11.21-6.11" transform="translate(693.822 -204.543)"/><path class="f" d="M-403.769,249.382a9.2,9.2,0,0,0,6.372,10.339,9.217,9.217,0,0,0,11.2-6.118" transform="translate(690.986 -205.084)"/><path class="q" d="M-389.958,355.152c-2.248-2.668-4.164-1.869-7.536.487-2.184,1.525-7.292,1.666-6.742-3.993.347-3.554,4.793-2.066,6.148-4.224,1.322-2.106.123-6.3,5.12-6.345,4.725-.039,6.162,1.527,7.2,4.316a6.507,6.507,0,0,1-.255,4.187c-.407.649-1.051,1.354-.149,2.256" transform="translate(690.913 -187.595)"/><path class="r" d="M-392.252,351.688" transform="translate(693.207 -185.571)"/><path class="r" d="M-389.605,349.252" transform="translate(693.712 -186.036)"/><path class="s" d="M-379.424,334.328" transform="translate(695.654 -188.882)"/><path class="s" d="M-382.172,338.719" transform="translate(695.13 -188.045)"/><path class="t" d="M-373.593,337.311c-1.556-1.041.851-4.066-.43-5.7-1.056-1.347-5.268,1.094-5.2-1.6.05-1.852-1-5.254-3-4.535s-2.67,5.269-4.6,7.221-2.872,2.8-.8,5.155c1.194,1.361.373,2.223,1.212,3.959,1.706,3.528,5.786,1.19,7.4,2.471" transform="translate(693.867 -190.59)"/><path class="u" d="M-397.029,338.137c-1.985-1.523-3.421-4.7-2.346-6.1s3.767-.33,4.874.519c2.471,1.9,4.445,4.2,4.488,5.6C-389.946,340.355-395.046,339.661-397.029,338.137Z" transform="translate(691.778 -189.448)"/><path class="v" d="M-476.731,359.981c-.486-5.333,3.965-2.22,4.768-4.171.741-1.8,1.423.679,4.285-.625s4-.623,5.476,2.373c1.413,2.864,3.862,5.611.2,6.519-3.974.986-5.207,3.052-8.278,1.58s-7.809,1.771-6.355-1.681C-475.752,361.875-476.646,360.909-476.731,359.981Z" transform="translate(677.061 -185.025)"/><path class="v" d="M-445.355,347.049c-1.429-.764-4.431,2.019-5.209,2.2-.935.218-6.6-1.09-4.949,1.606,1.477,2.411-.042,4.129-1.257,4.21-3.516.231-2.985,3.772-.427,4.445s.314,3.7,2.218,5.251,5.03-.742,6.073,1.727,3.475,3.38,5.731,1.456-.262-4.252,1.3-7.821,4.687-5.86.083-8.278C-444.077,350.646-444.311,347.608-445.355,347.049Z" transform="translate(680.426 -186.481)"/><path class="w" d="M-506.814,366.964c-3.751-.757-1.12-5.026-7.722-2.191-2.447,1.05-8.064-2.615-4.7-7.193,2.116-2.878,5.319.224,7.8-1.156,2.173-1.21,2.6-5.231,7.221-3.33s4.7,4.909,4.224,7.34C-500.586,363.492-503.619,367.608-506.814,366.964Z" transform="translate(668.788 -185.399)"/><path class="v" d="M-496,371.876c.432-3.616,2.335-3.239,2.91-2.808,1.527,1.146,3.333.145,2.563-1.657-.694-1.627,3.563-1.777,3.658-3.451s-4.04-2.337-3.114-3.943,1.686-4.114.148-5.317c-1.765-1.381-4.882,3.1-7.412,3.783s-3.877.452-3.394,3.94c.239,1.73-.943,2.061-1.2,3.94-.225,1.617.751,2.649.411,4.537" transform="translate(672.297 -185.047)"/><path class="s" d="M-496.817,360.342" transform="translate(673.263 -183.921)"/><path class="s" d="M-500.827,359.624" transform="translate(672.499 -184.058)"/><path class="x" d="M-481.363,367.368c-2.241,1.112-5.725,1.005-6.509-.576s1.425-3.411,2.609-4.147c2.835-1.763,5.731-2.144,7-1.571C-476.257,361.981-479.122,366.256-481.363,367.368Z" transform="translate(674.938 -183.828)"/><path class="v" d="M-447.426,372.567c-.255-3.588-2.119-5.95-4.27-5.577-2.118.367-3.781-.53-4.091-1.574-.662-2.227-3.046-2.092-3.359-.141-.281,1.747-3.383-.62-5.386.491-1.467.813-1.215,4.89-1.215,7.46" transform="translate(679.186 -183.265)"/><path class="v" d="M-481.131,371.945l.149-1.507c0-1.611,1.353-2.821,2.541-1.822.614.517,1.667.706,2.729-.932,1.846-2.847,6.572-.085,6.572,4.917" transform="translate(676.255 -182.739)"/><path class="t" d="M-371.012,325.12c-3.548.376-1.605-4.314-9.342-1.247-2.826,1.121-7.935.137-6.49-6.274,1.9-8.413,4.7-.174,7.911-3.151,2.091-1.936,1.5-6.585,7.134-5.658s6.062,3.6,6.632,7.166S-367.587,324.757-371.012,325.12Z" transform="translate(694.19 -193.776)"/><path class="t" d="M-361.084,294.841c-.724-.825-3.177.306-3.7.246-.626-.073-3.862-2.22-3.41-.082.4,1.91-.9,2.684-1.673,2.459-2.23-.653-2.652,1.779-1.209,2.8s-.591,2.487.262,3.932,3.041,2.508,3.164,4.357,2.707,2.545,4.514,1.805.982-3.445,2.708-5.417,2.873-3.529.532-6.16C-361.056,297.481-360.556,295.445-361.084,294.841Z" transform="translate(697.086 -196.562)"/><path class="t" d="M-375.108,306.266c-3.38,3.722-2.047.014-3.9,1.407-1.709,1.287-1.271.194-4.7-.179s-4.122-1.648-3.842-5.3c.269-3.5,3.328-9.067,7.3-7.874,4.3,1.293,2.779,2.757,4.856,5.866s5.3,2.49,4.189,4.678C-372.974,308.318-374.384,305.469-375.108,306.266Z" transform="translate(694.093 -196.545)"/><path class="f" d="M-368.794,257.651s16.088-3.972,28.911,4.074" transform="translate(697.681 -203.694)"/><path class="f" d="M-368.794,261.283s14.678,1.877,25.295,12.665" transform="translate(697.681 -202.814)"/><path class="f" d="M-369.971,255.157s13.3-6.481,28.1-3.283" transform="translate(697.457 -204.778)"/><g transform="translate(251.362 26.981)"><path class="f" d="M-404.241,249.9s-13.38-9.776-28.3-7.2" transform="translate(434.161 -233.422)"/><path class="f" d="M-405.693,252.374s-14.294-3.831-28.208,2.125" transform="translate(433.901 -231.726)"/><path class="f" d="M-402.58,248.535s-9.851-11.043-24.753-13.7" transform="translate(435.154 -234.839)"/></g><path class="m" d="M-389.892,237.33c1.014,3.629.683,7.141-5.1,8.392-7.589,1.641-8.7-1.892-9.283-4.851-.733-3.7,1.568-7.884,5.2-8.9S-390.908,233.7-389.892,237.33Z" transform="translate(690.888 -208.445)"/><path class="p" d="M-392.76,239.035c.269,1.488-1.986.238-4.671.724s-4.782,2.522-5.051,1.034,1.69-3.088,4.374-3.573S-393.029,237.548-392.76,239.035Z" transform="translate(691.251 -207.431)"/><path class="m" d="M-365.655,246.756c-1.2,3.564-3.446,6.274-8.919,4.059-7.18-2.907-6.111-6.443-4.933-9.213,1.471-3.461,5.72-5.624,9.284-4.424S-364.455,243.192-365.655,246.756Z" transform="translate(695.476 -207.475)"/><path class="p" d="M-368.735,246.218c-.656,1.447-1.7-.91-4.093-2s-5.23-.489-4.572-1.937,3.129-1.741,5.523-.655S-368.077,244.77-368.735,246.218Z" transform="translate(696.021 -206.688)"/><path class="y" d="M-541.843,265.453c15.762-8.287,34.7-8.424,70.551,6.682,19.485,8.212,29.971,4.669,42.951,5.582,12.574.885,45.829,16.075,19.268,51.261-21.88,28.986-97.1,35.924-126.89,16.833C-569.06,324.6-575.078,282.929-541.843,265.453Z" transform="translate(660.454 -203.088)"/><path class="z" d="M-403.484,322.951c-1.394,5.076-2.946,16.39-4.189,22.817-2.3,11.891.664,32.334-15.653,20.219-8.546-6.344-9.785-12.605-9.142-19.178.247-2.516,5.612-15.986,6.56-18.752" transform="translate(685.509 -191.052)"/><g transform="translate(252.665 131.899)"><path class="f" d="M-403.447,322.951c-1.394,5.076-2.946,16.39-4.189,22.817-2.3,11.891.664,32.334-15.653,20.219-8.546-6.344-10.453-12.54-9.142-19.178.859-4.345,5.612-15.986,6.56-18.752" transform="translate(432.807 -322.951)"/><path class="aa" d="M-422.992,343.687S-427,356.528-425.7,360.444" transform="translate(434.113 -318.996)"/><path class="aa" d="M-418.137,347.014c.679-1.316-5.3,13.828-3.241,16.563" transform="translate(434.905 -318.377)"/><path class="aa" d="M-427.393,341.671s-3.656,10.984-2.479,14.588" transform="translate(433.323 -319.381)"/></g><path class="f" d="M-456.694,243.341s-5.774-7.8-4.116-13.961" transform="translate(680.074 -208.899)"/><path class="f" d="M-452.179,239.437s-6.846-11.5-4.5-15.772" transform="translate(680.826 -209.989)"/><path class="f" d="M-448.175,235.168s-6.237-11.844-3.672-15.986" transform="translate(681.722 -210.844)"/><path class="v" d="M-443.769,371.978c-.213-1.66,1.218-2.205,2.077-3.023,2.3-1.887-.868-4.912,5.28-5.791a8.518,8.518,0,0,1,3.7.312,7.928,7.928,0,0,1,5.337,6.073" transform="translate(683.377 -183.397)"/></g></svg>