<svg xmlns="http://www.w3.org/2000/svg" width="344.5" height="146.407" viewBox="0 0 344.5 146.407">
  <g id="norppa_kurkkaa" transform="translate(-97.544 -106.564)">
    <g id="Group_842" data-name="Group 842" transform="translate(97.544 106.564)">
      <path id="Path_1699" data-name="Path 1699" d="M234.669,233.249c-29.975-1.062-128.075,8.983-136.284-22.9C89.3,175.061,156.221,186.663,186.652,173c16.155-7.254,43.965-15.206,60.692-14.663,17.9.58,65.26-6.527,97.169,6.545,25.166,10.309,58.965-4.3,86.373,12.054,22.327,13.322,10.824,34.177-31.572,45-47.553,12.142-26.867,40.026-94.526,25.257C276.479,241.015,257.945,234.074,234.669,233.249Z" transform="translate(-97.544 -104.998)" fill="#6aafeb"/>
      <path id="Path_1700" data-name="Path 1700" d="M238.662,226.266c-26.088-.712-110.862,6.215-118.74-19.028-8.445-27.055,45.99-19.86,71.951-31.362,15.236-6.75,43.828-17.35,58.384-17,15.577.377,64.551-2.691,85.273,6.6,21.608,9.686,51.434.865,72.36,9.5s25.032,25.511-24.13,36.759c-41.639,9.525-30.9,39.014-83.225,28.025C275.857,234.576,258.92,226.819,238.662,226.266Z" transform="translate(-96.876 -104.943)" fill="#3a83e2"/>
      <path id="Path_1701" data-name="Path 1701" d="M239.595,213.909c-22.62-.544-100.445,5.385-102.949-14.839-1.831-14.781,47.564-10.818,69.052-25.371,10.895-7.379,30.405-11.372,43.026-11.1,13.507.288,57.571-4.988,74.9,3.679,27.525,13.766,43.834,4.324,62.625,8.959,18.615,4.591,31.055,21.229-21.83,28.944-36.439,5.316-20.118,28.542-71.489,17.685C271.662,217.369,257.159,214.333,239.595,213.909Z" transform="translate(-96.33 -104.863)" fill="#bbe0f7" opacity="0.7"/>
      <path id="Path_1702" data-name="Path 1702" d="M278.145,209.874a74.683,74.683,0,0,1-17.585-.287c-38.994-5.15-43.929-10.567-42.2-13.458,2.55-4.274,4.842-7.827,5.909-12.924,3.364-16.067,2.6-42.446,2.781-43.613,3.559-23.4,17.97-30.874,31.495-32.441,19.081-2.211,43.454-.225,46.057,43.312,1.705,28.522,4.051,31.677,8.91,41.18,1.317,2.576-12.062,15.791-35.362,18.231" transform="translate(-93.796 -106.564)" fill="#656d78"/>
      <path id="Path_1703" data-name="Path 1703" d="M294.845,148.86c1.39,3.951,1.277,7.869-5.046,9.677-8.3,2.372-9.781-1.467-10.647-4.7-1.082-4.047,1.166-8.859,5.118-10.248S293.457,144.908,294.845,148.86Z" transform="translate(-91.905 -105.424)" fill="#f2faff" opacity="0.8"/>
      <path id="Path_1704" data-name="Path 1704" d="M251.463,151.514c.46,3.972-.471,7.6-6.737,7.945-8.223.459-8.8-3.427-8.92-6.624-.154-4,2.953-8,6.925-8.46S251,147.543,251.463,151.514Z" transform="translate(-93.245 -105.39)" fill="#f2faff" opacity="0.8"/>
      <path id="Path_1705" data-name="Path 1705" d="M230.146,156.906" transform="translate(-93.421 -104.999)" fill="#ccc" stroke="#999" stroke-miterlimit="10" stroke-width="0.978"/>
      <path id="Path_1706" data-name="Path 1706" d="M269.1,200.03" transform="translate(-92.209 -103.658)" fill="#ccc" stroke="#999" stroke-miterlimit="10" stroke-width="0.978"/>
      <path id="Path_1707" data-name="Path 1707" d="M298.536,157.718" transform="translate(-91.294 -104.973)" fill="#ccc" stroke="#999" stroke-miterlimit="10" stroke-width="0.978"/>
      <path id="Path_1708" data-name="Path 1708" d="M203.362,190.975" transform="translate(-94.254 -103.939)" fill="#ccc" stroke="#999" stroke-miterlimit="10" stroke-width="1.023"/>
      <path id="Path_1709" data-name="Path 1709" d="M189.676,176.332" transform="translate(-94.679 -104.395)" fill="#ccc" stroke="#999" stroke-miterlimit="10" stroke-width="1.023"/>
      <path id="Path_1710" data-name="Path 1710" d="M254.171,225.933" transform="translate(-92.674 -102.852)" fill="#ccc" stroke="#999" stroke-miterlimit="10" stroke-width="1.214"/>
      <path id="Path_1711" data-name="Path 1711" d="M285.731,144.434" transform="translate(-91.692 -105.387)" fill="#ccc" stroke="#999" stroke-linecap="round" stroke-miterlimit="10" stroke-width="1.007"/>
      <path id="Path_1712" data-name="Path 1712" d="M259.279,144.636c-.023-3.447,2.524.255,5.971.232s6.488-3.76,6.51-.314-4.587,5.651-6.122,5.79S259.3,148.082,259.279,144.636Z" transform="translate(-92.515 -105.428)" fill="#27262d"/>
      <path id="Path_1713" data-name="Path 1713" d="M265.891,148.056a10.409,10.409,0,0,0,20.626,2.591" transform="translate(-92.31 -105.274)" fill="none" stroke="#27262d" stroke-linecap="round" stroke-miterlimit="10" stroke-width="1.166"/>
      <path id="Path_1714" data-name="Path 1714" d="M246.3,153.773a10.409,10.409,0,0,0,20.024-5.586" transform="translate(-92.918 -105.27)" fill="none" stroke="#27262d" stroke-linecap="round" stroke-miterlimit="10" stroke-width="1.166"/>
      <path id="Path_1715" data-name="Path 1715" d="M292.327,219.977" transform="translate(-91.487 -103.037)" fill="none" stroke="#e6e6e6" stroke-miterlimit="10" stroke-width="1.712"/>
      <path id="Path_1716" data-name="Path 1716" d="M296.035,228.611" transform="translate(-91.372 -102.769)" fill="none" stroke="#e6e6e6" stroke-miterlimit="10" stroke-width="1.712"/>
      <path id="Path_1717" data-name="Path 1717" d="M290.763,219.379" transform="translate(-91.536 -103.056)" fill="none" stroke="#e6e6e6" stroke-miterlimit="10" stroke-width="1.712"/>
      <path id="Path_1718" data-name="Path 1718" d="M292.327,219.977" transform="translate(-91.487 -103.037)" fill="none" stroke="#e6e6e6" stroke-miterlimit="10" stroke-width="1.712"/>
      <path id="Path_1719" data-name="Path 1719" d="M296.8,179.266c-1.376-.027-2.751,3.265-3.294,3.706-.653.53-5.51,1.736-3.3,3.151,1.98,1.265,1.391,3.167.471,3.7-2.655,1.544-1.022,4.039,1.2,3.557s1.521,2.7,3.536,3.143,3.656-2.522,5.318-1.046,3.869,1.227,4.962-1.118-1.669-3.143-1.685-6.473,1.627-6.293-2.787-6.347C299.033,181.514,297.805,179.287,296.8,179.266Z" transform="translate(-91.581 -104.303)" fill="none" stroke="#f6f6f6" stroke-miterlimit="10" stroke-width="1.657" opacity="0.75"/>
      <path id="Path_1720" data-name="Path 1720" d="M226.639,212.455" transform="translate(-93.53 -103.271)" fill="none" stroke="#e6e6e6" stroke-miterlimit="10" stroke-width="1.712"/>
      <path id="Path_1721" data-name="Path 1721" d="M215.34,206.109" transform="translate(-93.881 -103.469)" fill="none" stroke="#e6e6e6" stroke-miterlimit="10" stroke-width="1.712"/>
      <path id="Path_1722" data-name="Path 1722" d="M233.31,182.832c5.367,1.422,1.054,2,3.36,3.1,2.13,1.021.836,1.147,2.217,4.7s.479,4.879-3.248,6.463c-3.563,1.514-10.578,1.348-11.426-3.148-.92-4.877,1.289-4.126,3.281-7.742s-.256-6.465,2.456-6.485C234.238,179.7,232.161,182.526,233.31,182.832Z" transform="translate(-93.612 -104.289)" fill="none" stroke="#f6f6f6" stroke-miterlimit="10" stroke-width="1.504" opacity="0.75"/>
      <path id="Path_1723" data-name="Path 1723" d="M296.353,145.05s16.054-7.964,31.478-2.476" transform="translate(-91.362 -105.504)" fill="none" stroke="#27262d" stroke-linecap="round" stroke-miterlimit="10" stroke-width="1.166"/>
      <path id="Path_1724" data-name="Path 1724" d="M297.378,149.539s15.938-1.459,29.675,7.442" transform="translate(-91.33 -105.231)" fill="none" stroke="#27262d" stroke-linecap="round" stroke-miterlimit="10" stroke-width="1.166"/>
      <path id="Path_1725" data-name="Path 1725" d="M294.5,142.948s11.765-10.849,28.084-12.135" transform="translate(-91.419 -105.81)" fill="none" stroke="#27262d" stroke-linecap="round" stroke-miterlimit="10" stroke-width="1.166"/>
      <path id="Path_1726" data-name="Path 1726" d="M234.968,147.837s-16.8-6.249-31.566.815" transform="translate(-94.252 -105.36)" fill="none" stroke="#27262d" stroke-linecap="round" stroke-miterlimit="10" stroke-width="1.166"/>
      <path id="Path_1727" data-name="Path 1727" d="M234.344,152.461s-16,.207-28.739,10.491" transform="translate(-94.184 -105.137)" fill="none" stroke="#27262d" stroke-linecap="round" stroke-miterlimit="10" stroke-width="1.166"/>
      <path id="Path_1728" data-name="Path 1728" d="M236.8,144.416s-13.494-8.6-29.784-6.99" transform="translate(-94.14 -105.611)" fill="none" stroke="#27262d" stroke-linecap="round" stroke-miterlimit="10" stroke-width="1.166"/>
      <path id="Path_1729" data-name="Path 1729" d="M258.577,133.3c.875,3.9.212,7.629-6.538,8.761-8.857,1.486-9.847-2.316-10.285-5.488a8.794,8.794,0,0,1,6.692-9.3C252.7,126.316,257.7,129.4,258.577,133.3Z" transform="translate(-93.062 -105.926)" fill="#f2faff" opacity="0.8"/>
      <path id="Path_1730" data-name="Path 1730" d="M255.65,135.947c.466,2.1-2.1,3.348-5.166,4.027s-5.461.532-5.926-1.567,1.64-4.351,4.7-5.03S255.185,133.849,255.65,135.947Z" transform="translate(-92.974 -105.736)" fill="#27262d"/>
      <path id="Path_1731" data-name="Path 1731" d="M288.528,133.479c-.024,4-1.446,7.482-7.984,7.068-8.579-.541-8.683-4.468-8.409-7.657a8.561,8.561,0,0,1,8.243-7.558C284.552,125.357,288.551,129.481,288.528,133.479Z" transform="translate(-92.117 -105.981)" fill="#f2faff" opacity="0.8"/>
      <path id="Path_1732" data-name="Path 1732" d="M286.3,135.648c-.2,2.066-3.03,2.43-6.153,2.123s-5.358-1.17-5.154-3.236,2.9-3.491,6.022-3.184S286.5,133.583,286.3,135.648Z" transform="translate(-92.026 -105.795)" fill="#27262d"/>
      <circle id="Ellipse_113" data-name="Ellipse 113" cx="1.269" cy="1.269" r="1.269" transform="translate(152.671 30.272)" fill="#f2faff"/>
      <circle id="Ellipse_114" data-name="Ellipse 114" cx="1.269" cy="1.269" r="1.269" transform="translate(190.558 28.017)" fill="#f2faff"/>
    </g>
    <path id="Path_1733" data-name="Path 1733" d="M276.46,207.077a4.5,4.5,0,0,1,.378-2.8c1.89-3.721,3.709-2.5,7.655-4.13s3.974-5.385,6.176-3.648c3.513,2.772.335,3.984.705,4.68.445.835.969,1.663,1.151,2.158" transform="translate(5.563 2.783)" fill="none" stroke="#e6e6e6" stroke-miterlimit="10" stroke-width="1.701" opacity="0.75"/>
    <path id="Path_1734" data-name="Path 1734" d="M292.04,202.738" transform="translate(6.049 2.991)" fill="none" stroke="#e6e6e6" stroke-miterlimit="10" stroke-width="1.701" opacity="0.75"/>
  </g>
</svg>
