<svg xmlns="http://www.w3.org/2000/svg" width="20" height="20" viewBox="0 0 20 20"><defs><style>.a{fill:#121212;}</style></defs><g transform="translate(-9 -957.362)"><path class="a" d="M15,5a10,10,0,1,0,10,9.993A10,10,0,0,0,15,5Zm0,1.333A8.657,8.657,0,1,1,8.867,8.864,8.667,8.667,0,0,1,15,6.333Zm-.007,1.319a.667.667,0,0,0-.66.681V15a.667.667,0,0,0,.194.465l3.111,3.111a.667.667,0,1,0,.944-.937l-2.917-2.917V8.333a.667.667,0,0,0-.674-.681ZM8.111,14.111A.889.889,0,1,0,9,15a.889.889,0,0,0-.889-.889Zm13.778,0a.889.889,0,1,0,.889.889.889.889,0,0,0-.889-.889ZM15,21a.889.889,0,1,0,.889.889A.889.889,0,0,0,15,21Z" transform="translate(4 952.362)"/></g></svg>