<svg xmlns="http://www.w3.org/2000/svg" width="20" height="20" viewBox="0 0 20 20"><defs><style>.a{fill:#121212;}</style></defs><g transform="translate(-6 -6)"><g transform="translate(6 6)"><path class="a" d="M24.269,7.538H22.923V6.769a.769.769,0,0,0-1.538,0v.769H10.615V6.769a.769.769,0,0,0-1.538,0v.769H7.731A1.733,1.733,0,0,0,6,9.269v15A1.733,1.733,0,0,0,7.731,26H24.269A1.733,1.733,0,0,0,26,24.269v-15a1.733,1.733,0,0,0-1.731-1.731ZM7.731,9.077H9.077v.769a.769.769,0,1,0,1.538,0V9.077h10.77v.769a.769.769,0,1,0,1.538,0V9.077h1.346a.193.193,0,0,1,.192.192v2.115H7.538V9.269a.192.192,0,0,1,.193-.192ZM24.269,24.462H7.731a.193.193,0,0,1-.192-.192V12.923H24.462V24.269a.193.193,0,0,1-.193.193Z" transform="translate(-6 -6)"/><circle class="a" cx="0.769" cy="0.769" r="0.769" transform="translate(6.251 8.504)"/><circle class="a" cx="0.769" cy="0.769" r="0.769" transform="translate(9.304 8.504)"/><circle class="a" cx="0.769" cy="0.769" r="0.769" transform="translate(12.356 8.504)"/><circle class="a" cx="0.769" cy="0.769" r="0.769" transform="translate(15.409 8.504)"/><circle class="a" cx="0.769" cy="0.769" r="0.769" transform="translate(3.004 11.556)"/><circle class="a" cx="0.769" cy="0.769" r="0.769" transform="translate(6.251 11.556)"/><circle class="a" cx="0.769" cy="0.769" r="0.769" transform="translate(9.304 11.556)"/><circle class="a" cx="0.769" cy="0.769" r="0.769" transform="translate(12.356 11.556)"/><circle class="a" cx="0.769" cy="0.769" r="0.769" transform="translate(15.409 11.556)"/><circle class="a" cx="0.769" cy="0.769" r="0.769" transform="translate(3.004 14.609)"/><circle class="a" cx="0.769" cy="0.769" r="0.769" transform="translate(6.251 14.609)"/><circle class="a" cx="0.769" cy="0.769" r="0.769" transform="translate(9.304 14.609)"/></g></g></svg>