<svg xmlns="http://www.w3.org/2000/svg" width="24.009" height="24.009" viewBox="0 0 24.009 24.009">
  <path id="noun_Search_3684248" data-name="noun Search 3684248" d="M275.1,362.735a8.537,8.537,0,1,0-1.9,13.5l7.316,7.315a2.355,2.355,0,0,0,3.33-3.33l-5.244-5.244h0l-2.072-2.073A8.548,8.548,0,0,0,275.1,362.735ZM263.733,374.1a7.536,7.536,0,1,1,10.657,0h0A7.544,7.544,0,0,1,263.733,374.1Zm19.4,8.742a1.384,1.384,0,0,1-1.915,0l-4.894-4.891,1.917-1.915,4.892,4.891A1.356,1.356,0,0,1,283.133,382.841Zm-5.6-7.514-1.915,1.915-1.562-1.562a7.812,7.812,0,0,0,1.915-1.915Z" transform="translate(-260.52 -360.23)" fill="#040405"/>
</svg>
