<svg xmlns="http://www.w3.org/2000/svg" width="71" height="71" viewBox="0 0 71 71">
  <g id="Group_468" data-name="Group 468" transform="translate(-6120 13094)">
    <g id="noun_Smile_70978" data-name="noun Smile 70978" transform="translate(5870.143 -13633.232)">
      <g id="Path_192" data-name="Path 192">
        <path id="Path_195" data-name="Path 195" d="M302.831,580.651H267.886a1.67,1.67,0,0,0-1.691,1.65v.017c0,9.1,8.06,15.7,19.164,15.7s19.163-6.589,19.163-15.69a1.678,1.678,0,0,0-1.675-1.678Zm-17.472,14.017c-8.553,0-14.732-4.719-15.661-10.636H301.02C300.089,589.951,293.911,594.668,285.359,594.668Z" fill="#9f9f9f"/>
      </g>
      <g id="Path_193" data-name="Path 193">
        <path id="Path_196" data-name="Path 196" d="M285.357,539.232c-19.242,0-35.5,16.257-35.5,35.5s16.258,35.5,35.5,35.5,35.5-16.253,35.5-35.5S304.6,539.232,285.357,539.232Zm0,67.623a32.121,32.121,0,1,1,32.123-32.123A32.551,32.551,0,0,1,285.357,606.855Z" fill="#9f9f9f"/>
      </g>
    </g>
    <g id="Path_194" data-name="Path 194" transform="translate(5870.143 -13633.232)">
      <path id="Path_197" data-name="Path 197" d="M278.816,571.6a2,2,0,0,1-1.463-.635,4.558,4.558,0,0,0-3.25-1.736,4.982,4.982,0,0,0-3.157,1.659,2,2,0,0,1-3.071-2.564,8.867,8.867,0,0,1,6.089-3.092c2.27-.1,4.392.945,6.314,3a2,2,0,0,1-1.462,3.364Z" fill="#9f9f9f"/>
    </g>
    <g id="Path_195-2" data-name="Path 195" transform="translate(5870.143 -13633.232)">
      <path id="Path_198" data-name="Path 198" d="M300.794,571.6a2,2,0,0,1-1.463-.635,4.548,4.548,0,0,0-3.25-1.736,4.982,4.982,0,0,0-3.157,1.659,2,2,0,0,1-3.07-2.564,8.861,8.861,0,0,1,6.088-3.092c2.265-.1,4.392.945,6.314,3a2,2,0,0,1-1.462,3.364Z" fill="#9f9f9f"/>
    </g>
  </g>
</svg>
