<svg xmlns="http://www.w3.org/2000/svg" width="71.004" height="71.004" viewBox="0 0 71.004 71.004">
  <g id="Group_466" data-name="Group 466" transform="translate(-5486 13180)">
    <g id="Group_465" data-name="Group 465" transform="translate(5486 -13180)">
      <g id="Group_464" data-name="Group 464">
        <g id="noun_angry_70990">
          <path id="Path_204" data-name="Path 204" d="M43.5,79C62.746,79,79,62.747,79,43.5S62.746,8,43.5,8,8,24.257,8,43.5,24.258,79,43.5,79Zm0-67.623A32.551,32.551,0,0,1,75.623,43.5,32.551,32.551,0,0,1,43.5,75.623,32.551,32.551,0,0,1,11.381,43.5,32.551,32.551,0,0,1,43.5,11.381Z" transform="translate(-8 -8)" fill="#9f9f9f"/>
          <path id="Path_205" data-name="Path 205" d="M1.692,7.609a1.688,1.688,0,0,0,.755-.178L10.9,3.2A1.691,1.691,0,1,0,9.388.179L.935,4.405a1.691,1.691,0,0,0,.757,3.2Z" transform="matrix(0.545, 0.839, -0.839, 0.545, 51.414, 20.436)" fill="#9f9f9f"/>
          <path id="Path_206" data-name="Path 206" d="M.934,3.2,9.387,7.43A1.691,1.691,0,1,0,10.9,4.4L2.448.178A1.691,1.691,0,0,0,.934,3.2Z" transform="translate(13.6 28.89) rotate(-51)" fill="#9f9f9f"/>
        </g>
        <path id="Path_207" data-name="Path 207" d="M46.852,57a19.465,19.465,0,0,0-16.962,9.293,1.691,1.691,0,0,0,2.925,1.7,16.075,16.075,0,0,1,14.038-7.609,16.078,16.078,0,0,1,14.039,7.609,1.69,1.69,0,1,0,2.924-1.7A19.462,19.462,0,0,0,46.852,57Z" transform="translate(-11.064 -13.891)" fill="#9f9f9f"/>
      </g>
    </g>
    <path id="noun_Happy_51401_1_" data-name="noun_Happy_51401 (1)" d="M29.692,34.333c2.386,0,4.32,2.364,4.32,5.273s-1.934,5.277-4.32,5.277-4.32-2.364-4.32-5.277S27.306,34.333,29.692,34.333Zm27.892,0c2.386,0,4.32,2.364,4.32,5.273s-1.934,5.277-4.32,5.277-4.32-2.364-4.32-5.277S55.2,34.333,57.584,34.333Z" transform="translate(5477.627 -13187.333)" fill="#9f9f9f"/>
  </g>
</svg>
