<svg xmlns="http://www.w3.org/2000/svg" width="71" height="71" viewBox="0 0 71 71">
  <g id="Group_461" data-name="Group 461" transform="translate(-336.861 -539.235)">
    <g id="Group_460" data-name="Group 460">
      <g id="noun_Sad_70980" data-name="noun Sad 70980">
        <g id="Path_200" data-name="Path 200">
          <path id="Path_192" data-name="Path 192" d="M372.361,539.235c-19.242,0-35.5,16.257-35.5,35.5s16.258,35.5,35.5,35.5,35.5-16.253,35.5-35.5S391.607,539.235,372.361,539.235Zm0,67.623a32.121,32.121,0,1,1,32.123-32.123A32.549,32.549,0,0,1,372.361,606.858Z" fill="#9f9f9f"/>
        </g>
      </g>
      <g id="Path_201" data-name="Path 201">
        <path id="Path_193" data-name="Path 193" d="M383.786,591.813a1.982,1.982,0,0,1-1.042-.294c-11.174-6.844-20.24-.375-20.619-.1a2,2,0,0,1-2.383-3.213c.464-.347,11.554-8.394,25.091-.1a2,2,0,0,1-1.047,3.705Z" fill="#9f9f9f"/>
      </g>
    </g>
    <g id="noun_Happy_51401" data-name="noun Happy 51401">
      <path id="Path_194" data-name="Path 194" d="M359.18,566.235c2.386,0,4.32,2.364,4.32,5.273s-1.934,5.277-4.32,5.277-4.32-2.364-4.32-5.277S356.794,566.235,359.18,566.235Zm27.892,0c2.386,0,4.32,2.364,4.32,5.273s-1.934,5.277-4.32,5.277-4.32-2.364-4.32-5.277S384.688,566.235,387.072,566.235Z" fill="#9f9f9f"/>
    </g>
  </g>
</svg>
