<svg xmlns="http://www.w3.org/2000/svg" width="71.004" height="71.004" viewBox="0 0 71.004 71.004">
  <g id="Group_459" data-name="Group 459" transform="translate(-5724 13180)">
    <g id="Group_458" data-name="Group 458" transform="translate(5724 -13180)">
      <g id="noun_Neutral_70982">
        <path id="Path_198" data-name="Path 198" d="M43.5,8C24.258,8,8,24.257,8,43.5S24.258,79,43.5,79,79,62.747,79,43.5,62.746,8,43.5,8Zm0,67.623A32.551,32.551,0,0,1,11.381,43.5,32.551,32.551,0,0,1,43.5,11.381,32.551,32.551,0,0,1,75.623,43.5,32.551,32.551,0,0,1,43.5,75.623Z" transform="translate(-8 -8)" fill="#9f9f9f"/>
        <path id="Path_199" data-name="Path 199" d="M54,67h-20.7C32.58,67,32,67.865,32,68.928s.58,1.924,1.294,1.924H54c.647,0,1.294-.862,1.294-1.926S54.71,67,54,67Z" transform="translate(-8 -19.509)" fill="#9f9f9f"/>
      </g>
    </g>
    <path id="noun_Happy_51401_1_" data-name="noun_Happy_51401 (1)" d="M29.692,34.333c2.386,0,4.32,2.364,4.32,5.273s-1.934,5.277-4.32,5.277-4.32-2.364-4.32-5.277S27.306,34.333,29.692,34.333Zm27.892,0c2.386,0,4.32,2.364,4.32,5.273s-1.934,5.277-4.32,5.277-4.32-2.364-4.32-5.277S55.2,34.333,57.584,34.333Z" transform="translate(5716.627 -13187.333)" fill="#9f9f9f"/>
  </g>
</svg>
