<svg xmlns="http://www.w3.org/2000/svg" width="71.004" height="71.004" viewBox="0 0 71.004 71.004">
  <g id="Group_457" data-name="Group 457" transform="translate(-5803 13180)">
    <g id="Group_456" data-name="Group 456" transform="translate(5803 -13180)">
      <g id="noun_Smile_70971">
        <path id="Path_196" data-name="Path 196" d="M43.5,79C62.746,79,79,62.747,79,43.5S62.746,8,43.5,8,8,24.257,8,43.5,24.258,79,43.5,79Zm0-67.623A32.551,32.551,0,0,1,75.623,43.5,32.551,32.551,0,0,1,43.5,75.623,32.551,32.551,0,0,1,11.381,43.5,32.551,32.551,0,0,1,43.5,11.381Z" transform="translate(-8 -8)" fill="#9f9f9f"/>
        <path id="Path_197" data-name="Path 197" d="M46.853,73.833A19.464,19.464,0,0,0,63.816,64.54a1.691,1.691,0,1,0-2.925-1.7,16.075,16.075,0,0,1-14.038,7.609,16.079,16.079,0,0,1-14.039-7.609,1.69,1.69,0,1,0-2.924,1.7A19.463,19.463,0,0,0,46.853,73.833Z" transform="translate(-11.351 -16.355)" fill="#9f9f9f"/>
      </g>
    </g>
    <path id="noun_Happy_51401_1_" data-name="noun_Happy_51401 (1)" d="M29.692,34.333c2.386,0,4.32,2.364,4.32,5.273s-1.934,5.277-4.32,5.277-4.32-2.364-4.32-5.277S27.306,34.333,29.692,34.333Zm27.892,0c2.386,0,4.32,2.364,4.32,5.273s-1.934,5.277-4.32,5.277-4.32-2.364-4.32-5.277S55.2,34.333,57.584,34.333Z" transform="translate(5794.627 -13187.333)" fill="#9f9f9f"/>
  </g>
</svg>
