<svg xmlns="http://www.w3.org/2000/svg" width="71.004" height="71.004" viewBox="0 0 71.004 71.004">
  <g id="Group_463" data-name="Group 463" transform="translate(-5565 13180)">
    <g id="Group_462" data-name="Group 462" transform="translate(5565 -13180)">
      <g id="noun_Sad_70980">
        <path id="Path_202" data-name="Path 202" d="M46.852,57a19.465,19.465,0,0,0-16.962,9.293,1.691,1.691,0,0,0,2.925,1.7,16.075,16.075,0,0,1,14.038-7.609,16.078,16.078,0,0,1,14.039,7.609,1.69,1.69,0,1,0,2.924-1.7A19.462,19.462,0,0,0,46.852,57Z" transform="translate(-11.351 -15.581)" fill="#9f9f9f"/>
        <path id="Path_203" data-name="Path 203" d="M43.5,8C24.258,8,8,24.257,8,43.5S24.258,79,43.5,79,79,62.747,79,43.5,62.746,8,43.5,8Zm0,67.623A32.551,32.551,0,0,1,11.381,43.5,32.551,32.551,0,0,1,43.5,11.381,32.551,32.551,0,0,1,75.623,43.5,32.551,32.551,0,0,1,43.5,75.623Z" transform="translate(-8 -8)" fill="#9f9f9f"/>
      </g>
    </g>
    <path id="noun_Happy_51401_1_" data-name="noun_Happy_51401 (1)" d="M29.692,34.333c2.386,0,4.32,2.364,4.32,5.273s-1.934,5.277-4.32,5.277-4.32-2.364-4.32-5.277S27.306,34.333,29.692,34.333Zm27.892,0c2.386,0,4.32,2.364,4.32,5.273s-1.934,5.277-4.32,5.277-4.32-2.364-4.32-5.277S55.2,34.333,57.584,34.333Z" transform="translate(5557.627 -13187.333)" fill="#9f9f9f"/>
  </g>
</svg>
