<svg xmlns="http://www.w3.org/2000/svg" width="88" height="88" viewBox="0 0 88 88">
  <g id="Group_316" data-name="Group 316" transform="translate(-1387 -395)">
    <g id="Group_314" data-name="Group 314">
      <path id="Path_113" data-name="Path 113" d="M44,0A44,44,0,1,1,0,44,44,44,0,0,1,44,0Z" transform="translate(1387 395)" fill="#33ce7f"/>
    </g>
    <g id="Group_315" data-name="Group 315" transform="translate(1132.634 14.072)">
      <path id="Path_109" data-name="Path 109" d="M292.841,439.554a1.491,1.491,0,0,1-.239.32,1.421,1.421,0,0,1-2.009.012h0a.778.778,0,0,0-1.092,1.108,2.96,2.96,0,0,0,2.111.86,3.108,3.108,0,0,0,.421-.032,2.98,2.98,0,0,0,2.173-1.52.777.777,0,1,0-1.335-.8c-.01.016-.018.033-.027.05Z" transform="translate(1.124 3.071)" fill="#fff"/>
      <path id="Path_110" data-name="Path 110" d="M303.025,436.875a.778.778,0,1,0-1.242.936h0a2.961,2.961,0,0,0,1.963,1.157,2.976,2.976,0,0,0,2.8-1.158.779.779,0,0,0-1.246-.933,1.423,1.423,0,0,1-2.269,0Z" transform="translate(1.945 2.901)" fill="#fff"/>
      <path id="Path_111" data-name="Path 111" d="M303.212,425.983a8.635,8.635,0,0,0-5.631,4.96,8.539,8.539,0,0,0-3.608-1.93,2.2,2.2,0,0,1-.48-.183,2.265,2.265,0,0,1-.967-3.053.778.778,0,0,0-1.38-.717,3.779,3.779,0,0,0-.395,2.24,4.347,4.347,0,0,0-2.39-1.074,1.455,1.455,0,0,0-1.536,1.107l-.38,1.7a2.421,2.421,0,0,0-2.034,1.634h-1.739a1.425,1.425,0,0,0-1.41,1.253,4.22,4.22,0,0,0,2.1,4.186,8.555,8.555,0,0,0,8.45,9.845,8.676,8.676,0,0,0,7.955-5.3,8.6,8.6,0,1,0,5.748-14.982,1.272,1.272,0,0,1-.3-.038,1.236,1.236,0,1,1,.609-2.4.778.778,0,0,0,.4-1.5l-.018,0a2.791,2.791,0,0,0-3.087,4.132C303.144,425.9,303.181,425.937,303.212,425.983Zm-12.593,4.681H289a2.432,2.432,0,0,0-1.033-1.293l.353-1.579A2.7,2.7,0,0,1,290.619,430.664Zm-3.917-.107a.878.878,0,1,1-.877.879h0A.878.878,0,0,1,286.7,430.557Zm-3.914,1.655h1.62a2.427,2.427,0,0,0,1.034,1.294l-.353,1.578A2.7,2.7,0,0,1,282.788,432.212Zm7.518,12.007a6.978,6.978,0,0,1-5.448-7.614c.065.011.124.033.19.04.049,0,.1.007.146.007a1.426,1.426,0,0,0,1.386-1.114l.38-1.7a2.425,2.425,0,0,0,2.034-1.628h1.739a1.423,1.423,0,0,0,1.413-1.256,4.193,4.193,0,0,0-.048-1.2,3.832,3.832,0,0,0,.671.449,3.75,3.75,0,0,0,.813.31,6.99,6.99,0,0,1,3.482,2.133,8.493,8.493,0,0,0,1.5,6.663,7.059,7.059,0,0,1-8.259,4.911Zm22.252-9.961a7.046,7.046,0,1,1-7.046-7.046h0a7.054,7.054,0,0,1,7.048,7.049Z" transform="translate(0.589 1.908)" fill="#fff" stroke="#fff" stroke-miterlimit="10" stroke-width="0.25"/>
      <path id="Path_112" data-name="Path 112" d="M324.881,426.537l-2.353-1.33V413.454a.691.691,0,0,0-.691-.691h-6.644a.691.691,0,0,0-.691.691v7.214l-15.008-8.486V393.62a.691.691,0,0,0-.3-.567.681.681,0,0,0-.635-.08l-16.888,6.277a.691.691,0,0,0,0,1.3l16.436,6.111v5.525l-25.387,14.355a.691.691,0,1,0,.668,1.211l.013-.007,1.672-.946V448.65a5.1,5.1,0,0,0,5.092,5.091h37.268a5.1,5.1,0,0,0,5.091-5.091V426.794l1.672.946a.691.691,0,0,0,.693-1.2Zm-9-12.386h5.263v10.28l-5.263-2.975ZM283.9,399.9l14.214-5.284v10.569Zm37.249,48.752a3.713,3.713,0,0,1-3.709,3.709H280.169a3.713,3.713,0,0,1-3.71-3.709V426.013L298.8,413.379l22.344,12.634Z" transform="translate(0)" fill="#fff" stroke="#fff" stroke-miterlimit="10" stroke-width="0.75"/>
    </g>
  </g>
</svg>
