<svg xmlns="http://www.w3.org/2000/svg" width="24" height="24" viewBox="0 0 24 24">
  <g id="noun_Time_3684260" data-name="noun Time 3684260" transform="translate(-228.49 -360)">
    <path id="Path_66" data-name="Path 66" d="M248.975,363.514a.269.269,0,0,0-.028-.018,11.979,11.979,0,0,0-16.915,0c-.009.007-.019.01-.028.018s-.011.019-.018.028a11.978,11.978,0,0,0,0,16.916c.007.009.01.019.018.028s.019.011.028.018a11.977,11.977,0,0,0,16.915,0c.009-.007.019-.01.028-.018s.011-.019.018-.028a11.978,11.978,0,0,0,0-16.916A.078.078,0,0,0,248.975,363.514Zm1.015,8.985h1.487a10.96,10.96,0,0,1-2.868,6.913l-1.049-1.049a.5.5,0,0,0-.707.707l1.049,1.049a10.96,10.96,0,0,1-6.912,2.867V381.5a.5.5,0,0,0-1,0v1.487a10.954,10.954,0,0,1-6.913-2.868l1.049-1.049a.5.5,0,0,0-.707-.707l-1.049,1.05A10.948,10.948,0,0,1,229.5,372.5h1.487a.5.5,0,0,0,0-1H229.5a10.952,10.952,0,0,1,2.867-6.913l1.049,1.049a.5.5,0,0,0,.707-.707l-1.049-1.049a10.959,10.959,0,0,1,6.913-2.867V362.5a.5.5,0,0,0,1,0v-1.487a10.963,10.963,0,0,1,6.913,2.867l-1.049,1.049a.5.5,0,1,0,.694.719l.013-.012,1.049-1.049a10.963,10.963,0,0,1,2.867,6.913H249.99a.5.5,0,1,0,0,1Z" fill="#040405"/>
    <path id="Path_67" data-name="Path 67" d="M242.212,373a1.977,1.977,0,0,0,.278-1,2,2,0,0,0-1.5-1.929V364.5a.5.5,0,0,0-1,0v5.571a1.995,1.995,0,1,0,.966,3.871,1.965,1.965,0,0,0,.554-.231l3.134,3.134a.5.5,0,0,0,.707-.707Zm-2.722-1a1,1,0,1,1,1,1A1,1,0,0,1,239.49,372Z" fill="#040405"/>
  </g>
</svg>
